<?xml version="1.0" encoding="UTF-8" standalone="no"?>
<!DOCTYPE svg PUBLIC "-//W3C//DTD SVG 1.1//EN" "http://www.w3.org/Graphics/SVG/1.1/DTD/svg11.dtd">
<svg width="100%" height="100%" viewBox="0 0 512 512" version="1.1" xmlns="http://www.w3.org/2000/svg" xml:space="preserve" style="fill-rule:evenodd;clip-rule:evenodd;stroke-linejoin:round;stroke-miterlimit:2;">
    <g transform="matrix(8.13936,0,0,8.13936,-3257.84,-132.276)">
        <g transform="matrix(1.06975,0,0,1.06975,51.1857,-5.47619)">
            <circle cx="355.712" cy="49.712" r="28.712"/>
        </g>
        <g transform="matrix(1.16713,0,0,0.894733,-72.151,6.75874)">
            <path d="M432.023,35.103C432.793,35.179 433.021,35.272 433.452,35.462C435.371,36.305 436.661,38.251 436.709,41L436.709,67C436.618,72.139 429.62,75.315 427.231,69.627C426.891,68.817 426.726,67.92 426.709,67L426.709,41C426.727,39.987 426.812,39.654 426.988,39.057C427.684,36.692 429.428,35.092 431.814,35.092C431.884,35.096 431.954,35.099 432.023,35.103Z" style="fill:white;"/>
        </g>
        <g transform="matrix(4.30758,0,0,4.30758,-1422.08,-84.0441)">
            <circle cx="430.355" cy="26.355" r="1.355" style="fill:white;"/>
        </g>
    </g>
</svg>
