<?xml version="1.0" encoding="UTF-8" standalone="no"?>
<!DOCTYPE svg PUBLIC "-//W3C//DTD SVG 1.1//EN" "http://www.w3.org/Graphics/SVG/1.1/DTD/svg11.dtd">
<svg width="100%" height="100%" viewBox="0 0 512 512" version="1.1" xmlns="http://www.w3.org/2000/svg" xml:space="preserve" style="fill-rule:evenodd;clip-rule:evenodd;stroke-linejoin:round;stroke-miterlimit:2;">
    <g id="megaphone" transform="matrix(1.06633,0,0,1.06633,256,256)">
        <g transform="matrix(1,0,0,1,-234.45,-147.77)">
            <clipPath id="_clip1">
                <rect x="0" y="0" width="468.899" height="295.54"/>
            </clipPath>
            <g clip-path="url(#_clip1)">
                <g id="path847" transform="matrix(1,0,0,1,-69.7489,-292.611)">
                    <path d="M162.589,587.156C162.187,586.641 159.223,581.156 156.001,574.969C152.779,568.781 148.51,560.765 146.514,557.154C144.518,553.544 142.885,550.434 142.885,550.242C142.885,550.051 140.185,544.978 136.885,538.969C133.585,532.959 130.885,527.947 130.885,527.829C130.885,527.712 128.185,522.6 124.885,516.469C121.585,510.338 118.885,505.24 118.885,505.14C118.885,505.04 116.269,500.101 113.072,494.164C109.875,488.228 105.748,480.476 103.901,476.939L100.542,470.508L93.697,470.208C85.837,469.864 84.029,469.011 80.472,463.964C77.243,459.384 74.308,452.426 71.917,443.683C69.06,433.237 69.027,423.329 71.814,413.225C75.031,401.563 78.215,394.754 82.499,390.371L86.26,386.523L109.885,386.094C136.281,385.614 151.434,384.175 174.265,379.982C192.059,376.713 202.519,374.117 230.26,366.084C235.658,364.521 258.442,356.445 264.76,353.855C279.291,347.899 282.751,346.435 289.885,343.226C298.098,339.532 321.815,327.797 327.01,324.857C328.66,323.924 332.71,321.647 336.01,319.799C339.31,317.951 343.191,315.688 344.635,314.77C346.078,313.852 349.453,311.809 352.135,310.229C360.083,305.547 367.634,300.724 373.565,296.54L379.135,292.611L379.135,428.015C379.135,537.289 378.951,563.302 378.182,562.818C377.658,562.489 372.849,559.33 367.495,555.798C343.788,540.164 307.759,520.663 283.885,510.545C279.141,508.535 273.066,505.963 270.385,504.831C267.703,503.698 264.16,502.35 262.51,501.835C260.86,501.32 259.172,500.65 258.76,500.347C257.642,499.527 233.087,491.166 222.76,488.089C205.824,483.045 171.927,475.242 170.513,476.062C170.24,476.221 170.664,477.952 171.455,479.91C172.246,481.867 175.134,489.544 177.874,496.969C183.394,511.933 183.886,513.258 195.412,544.219C209.073,580.915 211.135,586.571 211.135,587.346C211.135,588.537 163.518,588.351 162.589,587.156L162.589,587.156ZM496.179,536.679C493.934,535.634 489.04,532.974 485.304,530.768C481.567,528.561 470.241,522.012 460.135,516.214C431.125,499.571 429.93,498.655 429.93,493.063C429.93,486.641 434.276,482.652 440.61,483.261C444.061,483.592 447.431,485.358 472.51,499.976C476.635,502.38 483.047,506.091 486.76,508.221C509.974,521.543 510.17,521.687 510.874,526.03C511.602,530.517 510.596,533.86 507.916,535.861C504.148,538.674 500.946,538.897 496.179,536.679ZM398.635,428.106L398.635,389.619L403.151,390.152C414.644,391.507 424.751,400.427 429.855,413.719C431.597,418.257 431.88,420.138 431.94,427.594C432.008,436.084 431.582,438.477 428.8,445.219C424.67,455.223 414.94,463.818 405.535,465.769C397.804,467.373 398.635,471.909 398.635,428.106ZM453.76,435.897C446.849,433.03 445.669,423.373 451.67,418.795L454.393,416.719L531.76,416.719L534.105,418.391C539.567,422.288 540.184,428.894 535.52,433.559L532.861,436.219L494.06,436.369C472.72,436.451 454.585,436.239 453.76,435.897L453.76,435.897ZM434.635,368.944C430.145,365.897 428.718,360.509 431.153,355.8C432.581,353.038 438.287,349.46 468.01,332.691C469.66,331.76 474.047,329.223 477.76,327.053C499.562,314.309 501.847,313.492 506.624,316.737C509.81,318.902 511.109,321.308 511.124,325.068C511.146,330.743 510.353,331.471 493.51,341.262C482.618,347.593 461.833,359.56 451.964,365.183C441.859,370.94 438.613,371.645 434.635,368.944Z" style="fill-rule:nonzero;"/>
                </g>
            </g>
        </g>
    </g>
</svg>
