<?xml version="1.0" encoding="UTF-8" standalone="no"?>
<!DOCTYPE svg PUBLIC "-//W3C//DTD SVG 1.1//EN" "http://www.w3.org/Graphics/SVG/1.1/DTD/svg11.dtd">
<svg width="100%" height="100%" viewBox="0 0 512 512" version="1.1" xmlns="http://www.w3.org/2000/svg" xml:space="preserve" style="fill-rule:evenodd;clip-rule:evenodd;stroke-linejoin:round;stroke-miterlimit:2;">
    <g transform="matrix(8.32385,0,0,8.32385,-7335.79,-145.529)">
        <g transform="matrix(0.910012,0,0,0.920666,300.472,4.13585)">
            <path d="M672.212,15.281C686.891,15.421 700.723,26.397 703.959,40.821C707.301,55.715 698.668,72.456 684.387,78.295C669.834,84.245 651.303,77.876 643.487,64.101C636.411,51.629 638.82,34.656 649.113,24.603C655.183,18.675 663.671,15.254 672.212,15.281ZM671.824,20.72C659.341,20.839 647.705,30.403 645.273,42.664C642.84,54.933 650.03,68.49 661.717,73.268C676.155,79.172 695.014,69.924 698.586,54.001C702.061,38.512 689.74,21.107 672.528,20.725C672.293,20.721 672.059,20.72 671.824,20.72Z"/>
        </g>
        <g transform="matrix(1,0,0,1,0.140719,0)">
            <circle cx="901.359" cy="38.676" r="3.359"/>
        </g>
        <g transform="matrix(1,0,0,1,0.140719,0)">
            <path d="M901.459,34.789C904.444,34.903 906.532,39.115 904.041,41.49C901.808,43.62 896.946,41.809 897.516,38.085C897.802,36.217 899.368,34.763 901.459,34.789ZM901.286,35.846C898.841,35.939 897.319,40.041 900.258,41.284C902.08,42.055 904.533,40.339 904.146,38.175C903.906,36.835 902.781,35.827 901.286,35.846Z"/>
        </g>
        <g transform="matrix(1,0,0,1,21.1407,0)">
            <circle cx="901.359" cy="38.676" r="3.359"/>
        </g>
        <g transform="matrix(1,0,0,1,21.1407,0)">
            <path d="M901.459,34.789C904.467,34.904 906.496,39.15 904.041,41.49C901.787,43.638 896.865,41.718 897.532,37.989C897.859,36.158 899.375,34.763 901.459,34.789ZM901.286,35.846C899.589,35.911 898.179,37.682 898.618,39.383C899.227,41.748 903.59,42.284 904.146,39.177C904.44,37.533 903.027,35.824 901.286,35.846Z"/>
        </g>
        <path d="M912.264,46.084C916.082,46.262 919.411,49.493 919.549,53.455C919.618,59.419 920.842,66.039 917.182,69.492C913.032,73.407 904.678,70.69 904.451,64.176C904.384,58.396 903.155,51.756 906.692,48.26C908.176,46.793 909.857,46.028 912.264,46.084Z"/>
    </g>
</svg>
