<?xml version="1.0" encoding="UTF-8" standalone="no"?>
<!DOCTYPE svg PUBLIC "-//W3C//DTD SVG 1.1//EN" "http://www.w3.org/Graphics/SVG/1.1/DTD/svg11.dtd">
<svg width="100%" height="100%" viewBox="0 0 512 512" version="1.1" xmlns="http://www.w3.org/2000/svg" xml:space="preserve" style="fill-rule:evenodd;clip-rule:evenodd;stroke-linejoin:round;stroke-miterlimit:2;">
    <g transform="matrix(8.11353,0,0,8.11353,-2597.2,-131.225)">
        <g transform="matrix(0.986911,0,0,0.986911,0.657518,-1.34158)">
            <path d="M365.548,20.049C381.389,25.36 390.981,44.595 384.993,60.631C380.947,71.467 370.445,79.622 358.902,80.796C343.857,82.326 328.461,71.428 325.183,56.385C322.351,43.389 328.866,28.926 340.49,22.424C347.855,18.305 356.892,17.377 364.999,19.873C365.183,19.931 365.365,19.989 365.548,20.049ZM363.647,24.759C351.194,20.84 336.32,27.744 331.408,39.97C327.308,50.176 330.544,62.877 339.066,69.911C346.97,76.436 358.842,77.665 367.905,72.881C378.2,67.446 384.004,54.58 381.067,43.172C378.922,34.845 372.449,27.82 364.256,24.961C364.054,24.892 363.851,24.824 363.647,24.759Z"/>
        </g>
        <g transform="matrix(1.86002,-0.608246,0.894991,2.73689,-287.254,185.665)">
            <path d="M324.22,18.594L328.22,19.594C328.572,19.689 328.565,19.778 328.608,19.87C328.702,20.074 328.543,20.307 328.25,20.398C326.92,20.757 325.563,21.071 324.22,21.406C323.628,21.543 322.907,20.829 323.78,20.594L326.154,20L323.78,19.406C323.431,19.312 323.436,19.23 323.39,19.124C323.256,18.822 323.705,18.475 324.22,18.594Z"/>
        </g>
        <g transform="matrix(-1.86002,0.608246,0.894991,2.73689,948.731,-218.515)">
            <path d="M323.77,18.596C323.284,18.734 323.269,19.268 323.78,19.406L326.154,20L323.78,20.594C323.297,20.724 323.341,20.797 323.364,21.03C323.391,21.289 323.803,21.488 324.189,21.414C325.545,21.101 326.876,20.742 328.22,20.406C328.704,20.276 328.74,19.754 328.25,19.602C326.92,19.243 325.563,18.929 324.22,18.594C324.074,18.56 323.99,18.543 323.77,18.596Z"/>
        </g>
        <g transform="matrix(0.876868,-0.286745,0.286745,0.876868,9.8436,88.6407)">
            <path d="M388.623,71.498C389.672,71.995 389.64,72.613 389.618,73.609C389.309,84.384 380.917,94.337 370.178,96.257C356.826,98.644 342.516,87.783 342.375,73.153C342.375,73.153 342.635,71.441 344,71.374L388,71.374C388.113,71.38 388.24,71.361 388.623,71.498ZM345.69,74.626C346.694,87.263 361.511,97.209 374.154,91.675C380.791,88.769 385.619,82.16 386.293,74.826L386.31,74.626C372.77,74.626 359.23,74.626 345.69,74.626Z"/>
        </g>
    </g>
</svg>
