<?xml version="1.0" encoding="UTF-8" standalone="no"?>
<!DOCTYPE svg PUBLIC "-//W3C//DTD SVG 1.1//EN" "http://www.w3.org/Graphics/SVG/1.1/DTD/svg11.dtd">
<svg width="100%" height="100%" viewBox="0 0 512 512" version="1.1" xmlns="http://www.w3.org/2000/svg" xml:space="preserve" style="fill-rule:evenodd;clip-rule:evenodd;stroke-linejoin:round;stroke-miterlimit:2;">
    <g transform="matrix(8.26104,0,0,8.26104,-5295.88,-142.503)">
        <g transform="matrix(0.893845,0,0,0.904311,71.3359,4.92091)">
            <path d="M672.217,14.437C687.437,14.582 701.718,26.082 704.881,41.045C708.105,56.295 699.16,73.271 684.523,79.151C669.429,85.215 650.284,78.398 642.447,63.981C635.482,51.166 638.152,33.878 648.803,23.723C654.893,17.917 663.236,14.519 671.783,14.437C671.928,14.437 672.072,14.437 672.217,14.437ZM671.829,21.564C659.845,21.678 648.656,30.774 646.177,42.503C643.647,54.473 650.591,67.806 662.043,72.488C676.124,78.246 694.534,69.057 697.823,53.497C700.978,38.574 689.181,21.938 672.511,21.568C672.284,21.565 672.057,21.563 671.829,21.564Z"/>
        </g>
        <g transform="matrix(0.957691,0,0,0.957691,28.4314,2.04468)">
            <path d="M672.142,26.589C672.665,26.627 672.82,26.686 673.108,26.806C674.175,27.248 674.863,28.123 674.896,29.481L674.896,47.473C674.825,50.347 669.21,51.801 669.104,47.473L669.104,29.481C669.115,29.019 669.153,28.89 669.229,28.64C669.607,27.392 670.29,26.543 672.142,26.589Z"/>
        </g>
        <g transform="matrix(1.19711,0,0,1.25209,-132.461,-11.9316)">
            <path d="M672.063,45.259C672.719,45.289 673.328,45.568 673.763,46.037C676.521,49.265 679.138,52.602 681.825,55.885C683.231,57.68 680.324,60.932 678.237,58.687C675.479,55.458 672.862,52.122 670.175,48.838C669.105,47.472 669.899,45.246 672.063,45.259Z"/>
        </g>
    </g>
</svg>
