<?xml version="1.0" encoding="UTF-8" standalone="no"?>
<!DOCTYPE svg PUBLIC "-//W3C//DTD SVG 1.1//EN" "http://www.w3.org/Graphics/SVG/1.1/DTD/svg11.dtd">
<svg width="100%" height="100%" viewBox="0 0 512 512" version="1.1" xmlns="http://www.w3.org/2000/svg" xml:space="preserve" style="fill-rule:evenodd;clip-rule:evenodd;stroke-linejoin:round;stroke-miterlimit:2;">
    <g transform="matrix(70.6952,0,0,72.4185,-82203.3,-1190.5)">
        <path d="M1167.77,16.899C1168.36,16.91 1168.8,17.62 1168.51,18.158C1168.27,18.599 1167.59,18.738 1167.2,18.397C1166.78,18.032 1166.85,17.244 1167.39,16.983C1167.5,16.926 1167.64,16.898 1167.77,16.899ZM1167.75,17.09C1167.45,17.096 1167.18,17.317 1167.12,17.602C1167.03,17.982 1167.34,18.409 1167.75,18.414C1168.05,18.418 1168.34,18.188 1168.4,17.894C1168.48,17.524 1168.2,17.109 1167.78,17.091C1167.77,17.091 1167.76,17.09 1167.75,17.09Z"/>
    </g>
    <g transform="matrix(7.38023,0,0,7.56013,-8276.21,-108.689)">
        <path d="M1175.56,30.157C1178.31,33.684 1180.3,37.807 1181.2,42.267C1183.95,55.835 1176.12,70.905 1163.27,76.219C1150.03,81.698 1133.16,75.835 1126.05,63.151C1119.63,51.694 1121.79,36.055 1131.17,26.787C1136.69,21.335 1144.42,18.179 1152.19,18.204C1156.51,18.246 1160.74,19.33 1164.59,21.226C1163.26,22.263 1162.3,23.754 1161.94,25.465C1159.06,24.101 1155.88,23.293 1152.48,23.217C1152.27,23.213 1152.05,23.212 1151.84,23.212C1140.69,23.32 1130.26,31.76 1127.81,42.803C1125.27,54.236 1131.8,67.106 1142.64,71.591C1155.83,77.046 1173.06,68.422 1176.23,53.7C1177.72,46.769 1175.84,39.44 1171.71,33.706C1173.39,33.041 1174.76,31.767 1175.56,30.157Z"/>
    </g>
    <g transform="matrix(99.9375,0,0,102.374,-116567,-1570.79)">
        <path d="M1167.77,16.927C1168.14,16.934 1168.48,17.205 1168.56,17.556C1168.65,17.938 1168.43,18.373 1168.06,18.52C1167.62,18.693 1167.06,18.411 1166.95,17.938C1166.84,17.469 1167.21,16.937 1167.75,16.927C1167.76,16.927 1167.76,16.927 1167.77,16.927ZM1167.75,17.062C1167.44,17.068 1167.16,17.299 1167.09,17.596C1167.01,17.914 1167.2,18.273 1167.51,18.394C1167.87,18.537 1168.33,18.308 1168.43,17.917C1168.52,17.524 1168.21,17.071 1167.77,17.062C1167.76,17.062 1167.76,17.062 1167.75,17.062Z"/>
    </g>
    <g transform="matrix(9.24422,0,0,7.56013,-10421.3,-108.689)">
        <path d="M1154,43.069C1154.9,55.402 1152.06,64 1152.06,64C1151.37,66.365 1153.85,68 1156.01,67C1158.16,66 1171.39,60.275 1165,58C1162.87,57.241 1161,38 1161,38C1161,38 1153.78,40.115 1154,43.069Z"/>
    </g>
    <g transform="matrix(9.24422,0,0,7.56013,-10421.3,-108.689)">
        <path d="M1161.03,37.658C1161.23,37.703 1161.24,37.742 1161.28,37.959C1161.86,43.768 1162.41,49.646 1163.92,55.134C1164.26,56.35 1164.7,57.513 1165.38,57.783C1166.11,58.092 1166.97,58.546 1167.01,59.575C1167.07,61.267 1165.55,62.075 1164.48,62.84C1161.79,64.776 1158.88,66.262 1155.89,67.414C1155.69,67.49 1155.49,67.547 1155.29,67.586C1155.07,67.626 1154.85,67.645 1154.63,67.643C1154.45,67.64 1154.28,67.624 1154.1,67.593C1152.68,67.341 1151.23,65.758 1151.87,63.658C1151.92,63.486 1151.92,63.462 1151.98,63.276C1153.79,56.827 1154.03,49.866 1153.71,43.015C1153.71,42.958 1153.71,42.902 1153.72,42.845C1153.82,40.808 1155.7,39.966 1156.97,39.285C1157.31,39.107 1157.64,38.942 1157.98,38.786C1158.92,38.357 1159.88,37.993 1160.85,37.691C1160.85,37.691 1160.95,37.657 1161.03,37.658ZM1160.6,38.482C1158.54,39.176 1156.34,39.906 1154.86,41.632C1154.42,42.141 1154.25,42.521 1154.34,43.905C1154.72,50.478 1154.28,57.145 1152.55,63.373C1152.37,64.02 1152.12,64.668 1152.3,65.319C1152.86,67.398 1155.3,66.956 1156.44,66.437C1156.99,66.186 1157.54,65.933 1158.09,65.673C1158.71,65.377 1159.33,65.073 1159.94,64.757C1162.1,63.655 1164.41,62.634 1165.98,60.655C1166.21,60.365 1166.44,60.014 1166.45,59.654C1166.48,58.65 1165.46,58.62 1164.81,58.279C1163.54,57.527 1163.33,55.336 1162.9,53.313C1161.86,48.477 1161.28,43.498 1160.77,38.519C1160.77,38.519 1160.92,38.377 1160.6,38.482Z"/>
    </g>
    <g transform="matrix(7.38023,0,0,7.56013,-8276.21,-93.5691)">
        <circle cx="1137" cy="47" r="3"/>
    </g>
    <g transform="matrix(7.38023,0,0,7.56013,-8283.59,-123.81)">
        <circle cx="1172" cy="26" r="2"/>
    </g>
    <g transform="matrix(7.10332,0,0,8.55735,-7899.16,-178.187)">
        <path d="M1177.06,35.108C1177.35,35.13 1177.43,35.169 1177.58,35.246C1178.15,35.547 1178.23,36.299 1177.67,36.697L1162.67,46.697C1161.74,47.275 1160.33,46.02 1161.33,45.303L1176.33,35.303C1176.53,35.176 1176.61,35.101 1177.06,35.108Z"/>
    </g>
    <g transform="matrix(6.71543,2.78909,-2.31518,8.09007,-7329.29,-3360.97)">
        <path d="M1176.8,35.128C1177.4,34.989 1177.54,35.136 1177.72,35.264C1178.18,35.589 1178.14,36.304 1177.58,36.7L1162.58,46.7C1161.63,47.291 1160.24,46.143 1161.42,45.3L1176.42,35.3C1176.52,35.236 1176.53,35.21 1176.8,35.128Z"/>
    </g>
    <g transform="matrix(5.59414,5.27359,-4.37752,6.73925,-5929.45,-6146.2)">
        <path d="M1161.53,45.239C1161.53,45.239 1176.6,35.193 1176.6,35.193C1177.1,34.928 1177.2,35.011 1177.39,35.057C1178.11,35.22 1178.24,36.208 1177.47,36.761L1162.47,46.761C1162.14,46.965 1161.99,46.979 1161.76,46.965C1160.98,46.918 1160.44,46.02 1161.53,45.239Z"/>
    </g>
</svg>
