<?xml version="1.0" encoding="UTF-8" standalone="no"?>
<!DOCTYPE svg PUBLIC "-//W3C//DTD SVG 1.1//EN" "http://www.w3.org/Graphics/SVG/1.1/DTD/svg11.dtd">
<svg width="100%" height="100%" viewBox="0 0 512 512" version="1.1" xmlns="http://www.w3.org/2000/svg" xml:space="preserve" style="fill-rule:evenodd;clip-rule:evenodd;stroke-linejoin:round;stroke-miterlimit:2;">
    <path d="M256,6C393.979,6 506,118.021 506,256C506,393.979 393.979,506 256,506C118.021,506 6,393.979 6,256C6,118.021 118.021,6 256,6ZM258.982,178.372C266.292,178.928 268.461,179.606 272.557,180.986C290.783,187.127 303.036,201.304 303.498,221.32L303.498,410.667C302.633,448.091 236.15,471.222 213.455,429.801C210.222,423.901 208.656,417.366 208.502,410.667L208.502,221.32C208.672,213.941 209.472,211.517 211.144,207.168C217.763,189.946 234.329,178.297 256.995,178.297C257.657,178.322 258.32,178.347 258.982,178.372ZM256,60.183C282.215,60.183 303.498,81.466 303.498,107.681C303.498,133.896 282.215,155.18 256,155.18C229.785,155.18 208.502,133.896 208.502,107.681C208.502,81.466 229.785,60.183 256,60.183Z"/>
</svg>
