<?xml version="1.0" encoding="UTF-8" standalone="no"?>
<!DOCTYPE svg PUBLIC "-//W3C//DTD SVG 1.1//EN" "http://www.w3.org/Graphics/SVG/1.1/DTD/svg11.dtd">
<svg width="100%" height="100%" viewBox="0 0 512 512" version="1.1" xmlns="http://www.w3.org/2000/svg" xml:space="preserve" style="fill-rule:evenodd;clip-rule:evenodd;stroke-linejoin:round;stroke-miterlimit:2;">
    <g id="lion" transform="matrix(1.72178,0,0,1.72178,256,256)">
        <g transform="matrix(1,0,0,1,-136.286,-145.287)">
            <clipPath id="_clip1">
                <rect x="0" y="0" width="272.572" height="290.574"/>
            </clipPath>
            <g clip-path="url(#_clip1)">
                <g id="path847" transform="matrix(1,0,0,1,-206.039,-252.673)">
                    <path d="M367.626,542.984C367.627,542.66 369.088,536.235 370.874,528.707C372.659,521.179 373.841,515.02 373.5,515.02C373.159,515.02 371.486,516.278 369.784,517.816L366.688,520.613L367.284,515.004C369.917,490.229 364.705,477.585 345.481,462.114C336.678,455.029 323.947,441.777 319.426,434.992C314.61,427.763 310.97,419.886 309.099,412.645C307.113,404.958 306.976,392.524 308.79,384.52C310.363,377.577 314.583,367.619 318.482,361.645C322.855,354.947 334.714,343.474 342.827,338.093C349.901,333.401 363.139,326.593 367.1,325.61C369.115,325.11 369.176,325.175 368.618,327.242C367.58,331.087 368.035,345.594 369.349,350.563C370.694,355.647 374.091,362.846 377.467,367.769L379.609,370.892L377.141,374.561C373.1,380.566 371.871,385.667 372.327,394.537C373.003,407.674 376.771,415.873 388.233,429.147L394.707,436.645L403.578,437.534C413.517,438.531 422.245,441.09 427.786,444.632C429.73,445.875 431.631,446.701 432.009,446.467C433.919,445.286 450.125,419.316 450.125,417.435C450.125,416.312 443.026,415.093 438.569,415.45C431.255,416.037 425.945,418.827 419.935,425.24L414.87,430.645L407.703,430.533C399.411,430.404 398.243,429.765 396.955,424.653C395.646,419.455 396.213,418.864 402.229,419.15C405.061,419.285 407.378,419.317 407.377,419.223C407.376,419.128 405.895,417.686 404.085,416.018C399.622,411.904 397.463,406.707 397.036,399.049L396.697,392.953L401.098,390.606C403.519,389.315 408.191,386.003 411.48,383.246C417.172,378.475 417.327,378.396 414.686,381.618C411.688,385.278 405.835,390.451 402.966,391.977C401.324,392.85 401.212,393.27 401.57,397.215C402.403,406.403 408.106,412.495 417.826,414.579C421.265,415.317 421.97,415.215 425.709,413.447C434.09,409.482 440.946,408.631 451.938,410.191C453.127,410.359 453.817,409.164 455.918,403.292L458.46,396.19L456.355,391.333C455.197,388.662 454.138,386.205 454,385.873C453.462,384.575 459.012,385.34 460.899,386.824C463.777,389.088 463.555,386.725 460.66,384.289C459.097,382.974 457.112,382.271 453.923,381.9C446.637,381.055 440.88,375.901 445.562,374.415C446.276,374.188 449.367,374.478 452.43,375.059C455.901,375.717 458.476,375.861 459.263,375.442C459.958,375.072 461.796,374.77 463.348,374.77L466.169,374.77L463.585,372.057C462.163,370.564 453.858,362.964 445.128,355.167L429.257,340.991L427.04,334.818C425.821,331.423 424.357,327.332 423.787,325.728C423.217,324.124 421.733,322.035 420.489,321.086C417.19,318.569 404.75,311.613 393.039,305.736C381.517,299.953 382.487,299.949 376.25,305.812C373.996,307.93 371.851,309.02 367.625,310.194C351.728,314.61 335.14,323.505 319.25,336.131C312.409,341.568 298.211,355.507 299.184,355.831C299.6,355.97 301.88,355.225 304.251,354.176C306.622,353.128 308.663,352.27 308.787,352.27C308.91,352.27 307.362,355.404 305.345,359.234C294.844,379.182 290.431,403.239 293.765,422.359C294.919,428.978 298.826,440.342 300.25,441.222C300.771,441.544 300.94,439.312 300.763,434.426C300.619,430.424 300.758,427.599 301.072,428.148C309.757,443.283 313.789,448.325 330.919,465.466C346.417,480.974 351.042,487.035 354.179,495.949C356.182,501.641 356.852,513.191 355.7,522.145C354.521,531.297 352.573,540.03 351.878,539.268C351.566,538.925 350.715,536.789 349.989,534.52C347.268,526.025 341.05,515.981 335.61,511.295C334.037,509.94 329.881,506.084 326.375,502.725C315.776,492.571 310.403,487.765 299.128,478.351C272.596,456.199 263.76,441.141 261.007,413.39C260.114,404.387 260.488,396.479 262.336,385.301C263.309,379.415 266.685,369.42 270.176,362.092C272.221,357.8 273.748,354.142 273.57,353.964C273.391,353.786 270.129,355.023 266.32,356.714C262.51,358.405 259.293,359.688 259.17,359.564C259.046,359.441 262.654,352.811 267.187,344.831C271.72,336.852 275.298,330.192 275.138,330.033C274.616,329.511 265.927,340.501 261.543,347.229C255.688,356.214 247.3,374.695 248.523,375.918C248.688,376.083 250.647,374.723 252.875,372.895C256.64,369.807 258.595,368.964 256.832,371.189C255.679,372.644 253.071,380.081 251.712,385.791C248.761,398.181 249.849,420.442 253.936,431.292C258.207,442.632 268.796,461.199 281.583,479.77C285.701,485.751 289.533,491.178 290.098,491.829C290.663,492.48 291.125,493.235 291.125,493.505C291.125,494.243 284.654,491.55 276.037,487.225C238.613,468.445 214.981,440.612 207.755,406.804C205.621,396.819 205.448,377.178 207.404,366.895C210.817,348.95 218.266,334.202 229.408,323.333C233.461,319.379 248.085,308.98 248.711,309.606C248.907,309.802 247.393,312.893 245.346,316.474C243.3,320.056 241.625,323.215 241.625,323.494C241.625,323.774 245.085,320.646 249.313,316.543C258.55,307.58 269.219,298.921 276.875,294.171C282.728,290.541 282.677,290.518 273.644,292.755C260.037,296.124 241.488,305.175 228.444,314.811C226.087,316.552 224.433,317.509 224.769,316.936C227.402,312.449 230.988,308.056 237.447,301.403C245.279,293.335 251.498,288.326 259.438,283.687C262.016,282.18 264.125,280.849 264.125,280.728C264.125,280.607 262.522,280.771 260.563,281.094C258.603,281.417 255.988,281.686 254.75,281.694L252.5,281.708L255.5,279.048C267.486,268.418 291.329,260.681 316.25,259.335L325.25,258.849L320.188,256.274C317.403,254.857 315.125,253.393 315.125,253.02C315.125,252.153 327.642,253.012 336.389,254.479C347.958,256.421 360.195,261.058 368.938,266.813C370.278,267.696 371.375,268.258 371.375,268.063C371.375,267.867 370.202,265.134 368.769,261.989C367.336,258.844 366.337,256.271 366.549,256.271C368.135,256.271 373.828,260.125 377.152,263.45C383.22,269.517 389.25,283.557 389.371,291.896C389.388,293.061 391.691,294.566 399.696,298.642C411.945,304.879 425.107,312.646 428.172,315.446C429.442,316.606 431.207,319.665 432.342,322.676C433.424,325.547 435.005,329.752 435.856,332.021C437.145,335.459 438.417,337.019 443.498,341.396C459.29,354.996 472.936,367.999 476.477,372.821C480.664,378.521 478.655,386.492 470.758,395.52C468.344,398.28 466.653,401.424 464.502,407.149C458.692,422.617 450.648,436.973 439.537,451.705C431.662,462.145 432.184,461.887 427.491,457.667C422.752,453.407 415.515,449.656 408.827,447.994C402.525,446.428 401.829,446.438 402.5,448.083C410.616,467.98 409.506,487.168 399.061,507.521C397.05,511.439 393.235,517.528 390.583,521.051C383.957,529.853 367.622,545.46 367.626,542.985L367.626,542.984ZM319.15,311.741C317.623,302.39 318.054,292.962 320.197,288.824C324.272,280.954 333.669,276.686 339.867,279.891C344.966,282.527 345.491,286.183 342.1,295.436C340.816,298.938 340.003,302.371 340.234,303.311C341.249,307.443 347.346,307.335 351.048,303.118C355.792,297.714 357.005,285.875 353.513,279.038C347.541,267.342 330.712,264.743 320.486,273.938C310.513,282.904 309.676,296.33 317.928,314.973C318.982,317.353 319.948,319.196 320.076,319.069C320.204,318.941 319.787,315.643 319.15,311.741L319.15,311.741ZM426.875,404.395C426.875,403.77 427.542,403.27 428.375,403.27C429.208,403.27 429.875,403.77 429.875,404.395C429.875,405.02 429.208,405.52 428.375,405.52C427.542,405.52 426.875,405.02 426.875,404.395ZM415.063,403.832C415.234,403.317 415.994,402.895 416.75,402.895C417.506,402.895 418.266,403.317 418.438,403.832C418.635,404.426 418.017,404.77 416.75,404.77C415.483,404.77 414.865,404.426 415.063,403.832ZM438.125,404.064C438.125,403.676 438.432,403.169 438.807,402.937C439.777,402.338 441.95,403.293 441.452,404.099C440.9,404.992 438.125,404.963 438.125,404.064ZM417.292,396.396C417.679,395.233 420.036,395.038 420.313,396.145C420.416,396.557 419.703,397.008 418.729,397.146C417.515,397.317 417.063,397.082 417.292,396.396L417.292,396.396ZM428.151,396.796C427.096,395.741 427.67,395.02 429.563,395.02C430.779,395.02 431.384,395.369 431.188,395.957C430.827,397.042 428.923,397.567 428.151,396.796ZM440.375,396.145C440.375,395.52 441.042,395.02 441.875,395.02C442.708,395.02 443.375,395.52 443.375,396.145C443.375,396.77 442.708,397.27 441.875,397.27C441.042,397.27 440.375,396.77 440.375,396.145ZM440.875,390.02C439.933,389.078 440.375,388.27 441.831,388.27C443.717,388.27 444.461,389.481 442.934,390.066C441.47,390.628 441.484,390.629 440.875,390.02L440.875,390.02ZM418.813,388.832C418.984,388.317 419.575,387.895 420.125,387.895C420.675,387.895 421.266,388.317 421.438,388.832C421.624,389.39 421.092,389.77 420.125,389.77C419.158,389.77 418.627,389.39 418.813,388.832ZM428.901,389.296C427.846,388.241 428.42,387.52 430.313,387.52C431.529,387.52 432.134,387.869 431.938,388.457C431.577,389.542 429.673,390.067 428.901,389.296ZM407.753,368.687C414.429,359.623 415.378,356.167 412.656,350.83C410.968,347.521 408.241,344.829 401.426,339.744C396.007,335.7 395.23,334.48 397.759,333.983C410.81,331.414 413.65,329.765 413.708,324.728C413.725,323.17 413.468,321.051 413.136,320.02C412.602,318.367 412.846,318.476 415.203,320.946C418.067,323.949 418.514,326.214 417.063,330.375C416.425,332.206 416.586,334.453 417.813,340.869C419.803,351.27 419.798,355.25 417.793,359.182C416.1,362.502 409.882,369.451 406.365,371.956C404.533,373.26 404.733,372.79 407.754,368.687L407.753,368.687ZM410.231,338.579C410.396,337.731 410.048,337.496 409.022,337.764C407.992,338.034 407.458,337.668 407.148,336.483C406.845,335.324 406.344,334.967 405.483,335.298C404.806,335.557 403.521,335.781 402.626,335.794C401.011,335.816 401.01,335.826 402.5,336.998C404.498,338.57 408.315,340.262 409.25,339.989C409.663,339.869 410.104,339.234 410.231,338.579L410.231,338.579Z" style="fill-rule:nonzero;"/>
                </g>
            </g>
        </g>
    </g>
</svg>
