<?xml version="1.0" encoding="UTF-8" standalone="no"?>
<!DOCTYPE svg PUBLIC "-//W3C//DTD SVG 1.1//EN" "http://www.w3.org/Graphics/SVG/1.1/DTD/svg11.dtd">
<svg width="100%" height="100%" viewBox="0 0 512 512" version="1.1" xmlns="http://www.w3.org/2000/svg" xml:space="preserve" style="fill-rule:evenodd;clip-rule:evenodd;stroke-linejoin:round;stroke-miterlimit:2;">
    <g transform="matrix(8.06093,0,0,8.06093,-3872.98,-128.583)">
        <g transform="matrix(0.689195,0,0,0.689195,477.761,13.2497)">
            <path d="M58.686,77.99C57.785,79.557 56.103,80.545 54.193,80.544L45.806,80.544C43.896,80.544 42.214,79.555 41.315,77.99L58.686,77.99Z"/>
        </g>
        <g id="path4" transform="matrix(0.689195,0,0,0.689195,477.761,13.2497)">
            <path d="M56.509,82.521L43.491,82.521C42.662,82.521 41.991,83.192 41.991,84.021C41.991,84.85 42.662,85.521 43.491,85.521L56.51,85.521C57.339,85.521 58.01,84.85 58.01,84.021C58.01,83.192 57.338,82.521 56.509,82.521Z" style="fill-rule:nonzero;"/>
        </g>
        <g id="path6" transform="matrix(0.689195,0,0,0.689195,477.761,13.2497)">
            <path d="M58.009,88.761C58.009,87.932 57.338,87.261 56.509,87.261L43.491,87.261C42.662,87.261 41.991,87.932 41.991,88.761C41.991,89.59 42.662,90.261 43.491,90.261L56.51,90.261C57.338,90.261 58.009,89.589 58.009,88.761Z" style="fill-rule:nonzero;"/>
        </g>
        <g id="path8" transform="matrix(0.689195,0,0,0.689195,477.761,13.2497)">
            <path d="M14.733,43.267L23.376,43.267C24.205,43.267 24.876,42.596 24.876,41.767C24.876,40.938 24.205,40.267 23.376,40.267L14.733,40.267C13.904,40.267 13.233,40.938 13.233,41.767C13.233,42.596 13.904,43.267 14.733,43.267Z" style="fill-rule:nonzero;"/>
        </g>
        <g id="path10" transform="matrix(0.689195,0,0,0.689195,477.761,13.2497)">
            <path d="M86.767,41.767C86.767,40.938 86.096,40.267 85.267,40.267L76.624,40.267C75.795,40.267 75.124,40.938 75.124,41.767C75.124,42.596 75.795,43.267 76.624,43.267L85.267,43.267C86.096,43.267 86.767,42.596 86.767,41.767Z" style="fill-rule:nonzero;"/>
        </g>
        <g id="path12" transform="matrix(0.689195,0,0,0.689195,477.761,13.2497)">
            <path d="M48.5,6.5L48.5,15.143C48.5,15.972 49.171,16.643 50,16.643C50.829,16.643 51.5,15.972 51.5,15.143L51.5,6.5C51.5,5.671 50.829,5 50,5C49.171,5 48.5,5.671 48.5,6.5Z" style="fill-rule:nonzero;"/>
        </g>
        <g id="path14" transform="matrix(0.689195,0,0,0.689195,477.761,13.2497)">
            <path d="M73.877,15.769L67.766,21.88C67.18,22.465 67.18,23.416 67.766,24.001C68.059,24.294 68.443,24.44 68.827,24.44C69.211,24.44 69.595,24.294 69.888,24.001L75.999,17.89C76.585,17.305 76.585,16.354 75.999,15.769C75.412,15.183 74.463,15.183 73.877,15.769Z" style="fill-rule:nonzero;"/>
        </g>
        <g id="path16" transform="matrix(0.689195,0,0,0.689195,477.761,13.2497)">
            <path d="M32.234,59.533C31.648,58.947 30.699,58.947 30.113,59.533L24.002,65.644C23.416,66.229 23.416,67.179 24.002,67.765C24.295,68.058 24.679,68.204 25.063,68.204C25.447,68.204 25.831,68.058 26.124,67.765L32.235,61.654C32.82,61.069 32.82,60.119 32.234,59.533Z" style="fill-rule:nonzero;"/>
        </g>
        <g id="path18" transform="matrix(0.689195,0,0,0.689195,477.761,13.2497)">
            <path d="M30.113,24.001C30.406,24.294 30.79,24.44 31.174,24.44C31.558,24.44 31.942,24.294 32.235,24.001C32.821,23.416 32.821,22.465 32.235,21.88L26.124,15.769C25.538,15.183 24.589,15.183 24.003,15.769C23.417,16.354 23.417,17.305 24.003,17.89L30.113,24.001Z" style="fill-rule:nonzero;"/>
        </g>
        <g id="path20" transform="matrix(0.689195,0,0,0.689195,477.761,13.2497)">
            <path d="M73.877,67.765C74.17,68.058 74.554,68.204 74.938,68.204C75.322,68.204 75.706,68.058 75.999,67.765C76.585,67.179 76.585,66.229 75.999,65.644L69.888,59.533C69.302,58.947 68.353,58.947 67.767,59.533C67.181,60.119 67.181,61.069 67.767,61.654L73.877,67.765Z" style="fill-rule:nonzero;"/>
        </g>
        <g id="path22" transform="matrix(0.689195,0,0,0.689195,477.761,13.2497)">
            <path d="M54.754,93.5C54.754,92.671 54.083,92 53.254,92L46.745,92C45.916,92 45.245,92.671 45.245,93.5C45.245,94.329 45.916,95 46.745,95L53.254,95C54.083,95 54.754,94.329 54.754,93.5Z" style="fill-rule:nonzero;"/>
        </g>
        <path d="M515.112,66.004L509.331,66.004C508.785,66.004 508.34,65.559 508.34,65.013L508.34,63.067C508.34,58.95 506.61,54.912 503.594,51.985C501.016,49.484 499.652,45.985 499.851,42.387C500.182,36.425 504.891,31.437 510.805,30.783C511.276,30.73 511.753,30.704 512.222,30.704C519.054,30.704 524.613,36.262 524.613,43.095C524.613,46.516 523.248,49.701 520.77,52.063C517.805,54.888 516.104,58.899 516.104,63.069L516.104,65.013L516.103,65.013C516.053,65.575 515.674,65.957 515.112,66.004Z" style="fill:white;"/>
        <path d="M518.207,67L506.235,67C505.805,66.463 505.583,65.763 505.583,65.012L505.583,63.066C505.583,59.69 504.158,56.373 501.674,53.963C498.522,50.905 496.854,46.63 497.098,42.233C497.503,34.943 503.264,28.842 510.501,28.042C511.072,27.979 511.651,27.947 512.221,27.947C520.573,27.947 527.368,34.742 527.368,43.094C527.368,47.277 525.7,51.171 522.67,54.058C520.248,56.366 518.859,59.65 518.859,63.068L518.859,65.013C518.859,65.764 518.638,66.464 518.207,67ZM516.104,65.013L516.104,63.069C516.104,58.899 517.805,54.888 520.77,52.063C523.248,49.701 524.613,46.516 524.613,43.095C524.613,36.262 519.054,30.704 512.222,30.704C511.753,30.704 511.276,30.73 510.805,30.783C504.891,31.437 500.182,36.425 499.851,42.387C499.652,45.985 501.016,49.484 503.594,51.985C506.61,54.912 508.34,58.95 508.34,63.067L508.34,65.013C508.34,65.559 508.785,66.004 509.331,66.004L515.112,66.004C515.673,65.954 516.055,65.576 516.103,65.013L516.104,65.013Z"/>
        <g transform="matrix(0.813008,0,0,0.92,73.2248,2.62)">
            <path d="M536.067,38.187C536.067,38.187 546.2,39.062 544.795,41.441C544.226,42.406 542.686,42.386 541.297,42.641C540.357,42.809 538.994,43.048 538.994,43.048C541.183,43.415 544.332,43.274 544.87,44.713C545.382,46.081 542.165,46.452 539.066,46.984L538.985,46.998C541.605,47.457 545.21,47.503 544.909,49.146C544.654,50.54 541.872,50.508 539.065,50.988L538.989,51.001C541.526,51.447 544.916,51.53 544.922,52.997C544.93,54.666 540.52,54.667 537.634,55.281C538.716,55.758 540.392,56.262 540.392,56.262C540.855,56.483 540.894,56.559 540.922,57L540.922,66.174C540.887,66.732 540.636,66.808 540.4,66.908C539.84,67.147 539.115,66.759 539.077,66.174L539.077,57.577C538.856,57.506 538.636,57.432 538.417,57.357C536.638,56.737 534.101,55.819 535.25,54.482C536.307,53.252 538.406,53.464 540.784,53.056L541.045,53.01C538.991,52.65 536.489,52.676 535.38,51.654C534.739,51.063 535.33,50.12 536.735,49.777C538.111,49.441 539.529,49.253 540.935,49.012L541.006,49C538.103,48.492 533.677,47.916 535.379,46.346C535.885,45.88 536.713,45.766 537.492,45.609C538.919,45.323 540.905,45.013 540.905,45.013C538.903,44.687 536.485,44.731 535.382,43.725C534.74,43.139 535.324,42.193 536.728,41.84C538.328,41.438 539.986,41.224 541.616,40.915L541.665,40.906C539.753,40.432 537.788,40.125 535.83,39.801C535.83,39.801 535.303,39.66 535.142,39.299C534.922,38.807 535.209,38.249 535.964,38.185C535.998,38.186 536.033,38.186 536.067,38.187Z"/>
        </g>
    </g>
</svg>
