<?xml version="1.0" encoding="UTF-8" standalone="no"?>
<!DOCTYPE svg PUBLIC "-//W3C//DTD SVG 1.1//EN" "http://www.w3.org/Graphics/SVG/1.1/DTD/svg11.dtd">
<svg width="100%" height="100%" viewBox="0 0 512 512" version="1.1" xmlns="http://www.w3.org/2000/svg" xml:space="preserve" style="fill-rule:evenodd;clip-rule:evenodd;stroke-linejoin:round;stroke-miterlimit:2;">
    <g transform="matrix(8.00903,0,0,8.00903,-4488.49,-126.108)">
        <g transform="matrix(0.278733,0,0,0.278733,498.495,10.2081)">
            <path d="M356.447,59.464C356.447,59.464 357.467,35.491 361.014,30.354C364.561,25.217 370.717,24.687 373.367,24.769C376.017,24.85 385.149,26.196 386.332,31.007C388.433,39.559 386.454,48.864 386.454,48.864C376.784,48.864 365.579,54.19 356.447,59.464Z"/>
        </g>
        <g transform="matrix(0.278733,0,0,0.278733,498.495,10.2081)">
            <path d="M373.133,22.969C380.367,23.13 387.581,25.704 388.718,33.986C389.424,39.134 389.444,44.256 388.175,49.37C387.783,50.519 386.417,50.638 385.173,50.69C375.318,51.258 366.08,56.007 357.34,61.02C357.34,61.02 354.82,61.513 354.655,59.537C354.674,50.543 355.463,40.735 358.091,32.533C359.997,26.582 366.526,22.936 373.133,22.969ZM372.572,26.559C367.657,26.706 362.69,29.007 361.136,34.912C359.367,41.631 358.92,48.738 358.452,55.754C358.452,55.754 357.753,56.588 361.884,54.454C369.181,50.77 376.872,47.575 384.941,47.11C385.756,41.889 386.184,36.209 384.533,31.24C383.393,27.807 377.779,26.495 372.572,26.559Z"/>
        </g>
        <g transform="matrix(0.278733,0,0,0.278733,498.495,10.2081)">
            <path d="M286.187,46.161C286.187,46.161 285.697,33.889 300.578,33.319C306.517,33.091 308.22,34.722 311.423,37.926C314.013,40.515 315.092,64.874 318.436,85.341C320.273,96.587 317.172,99.814 313.788,100.263C310.404,100.711 302.25,103.443 298.091,90.885C293.933,78.328 286.961,57.291 286.187,46.161Z"/>
        </g>
        <g transform="matrix(0.278733,0,0,0.278733,498.495,10.2081)">
            <path d="M301.916,31.505C308.08,31.611 313.368,36.286 314.39,40.651C317.817,55.278 318.065,70.526 320.369,86.119C320.439,86.625 320.503,87.131 320.561,87.638C320.641,88.411 320.709,89.185 320.745,89.963C320.771,90.524 320.782,91.086 320.775,91.647C320.715,96.447 318.909,101.336 311.688,102.416C308.202,102.873 304.557,102.381 301.761,100.106C297.764,96.854 296.41,91.528 294.713,86.374C290.593,73.749 286.005,61.064 284.553,47.988C284.112,44.025 286.786,35.195 294.079,32.657C296.596,31.781 299.269,31.489 301.916,31.505ZM301.158,35.096C295.148,35.272 288.231,38.679 287.98,45.9C287.897,52.429 290.265,59.222 292.16,65.964C293.719,71.512 295.438,77.015 297.221,82.495C299.809,90.449 300.217,100.716 312.017,98.734C312.51,98.651 313.975,98.62 314.962,97.997C318.62,95.689 317.329,90.634 316.883,87.104C314.821,72.075 314.08,56.885 311.089,42.345C310.437,39.175 307.724,35.032 301.158,35.096Z"/>
        </g>
        <g transform="matrix(0.278733,0,0,0.278733,498.495,10.2081)">
            <path d="M261.021,68.687C260.852,65.631 259.945,63.338 264.772,60.305C269.599,57.272 269.338,56.815 273.611,56.554C277.883,56.293 280.362,58.87 281.569,62.979C282.776,67.089 287.781,82.318 291.615,93.899C292.576,96.805 292.305,99.415 292.332,100.585C292.359,101.764 287.766,109.424 276.22,102.901C274.274,101.801 270.904,97.65 266.305,88.094C262.416,80.013 261.277,73.319 261.021,68.687Z"/>
        </g>
        <g transform="matrix(0.278733,0,0,0.278733,498.495,10.2081)">
            <path d="M274.43,54.745C280.862,54.955 283.333,62.743 285.369,69.09C286.997,74.132 288.645,79.167 290.301,84.199C292.14,89.786 294.576,95.17 294.109,100.878C293.226,107.615 280.278,109.036 274.016,103.497C263.919,94.567 259.215,78.579 259.05,65.997C259.136,60.696 265.277,56.81 269.641,55.354C271.181,54.84 272.865,54.727 274.43,54.745ZM274.043,58.331C270.552,58.439 267.468,60.413 264.649,62.565C260.514,65.723 262.894,74.556 265.809,82.37C268.872,90.582 272.273,99.799 280.162,102.794C283.633,104.112 288.797,104.303 290.524,100.469C290.524,100.469 290.032,94.833 288.428,89.976C285.371,80.716 283.013,71.126 279.398,62.198C278.502,60.076 276.602,58.306 274.043,58.331Z"/>
        </g>
        <g transform="matrix(0.278733,0,0,0.278733,498.495,10.2081)">
            <path d="M272.798,244.737L361.727,244.737C361.727,244.737 355.076,184.982 362.542,173.388C370.008,161.794 376.633,160.52 391.03,146.888C405.427,133.255 414.282,124.783 415.556,112.807C415.556,112.807 412.14,84.452 397.522,64.015C390.643,54.396 384.081,54.141 374.781,58.409L336.24,73.188C336.24,73.188 334.584,73.507 334.393,74.844C334.202,76.182 330.571,93.254 357.135,92.808C383.699,92.363 383.653,84.749 391.917,73.889C391.917,73.889 397.65,88.923 377.392,98.733C377.392,98.733 385.1,104.593 394.974,107.715C394.974,107.715 381.597,114.531 367.964,100.007C367.964,100.007 359.747,101.026 351.147,99.625C351.147,99.625 326.601,109.142 310.695,144.408C310.695,144.408 306.619,125.679 333.82,101.727C333.82,101.727 328.978,101.345 324.519,99.242C324.519,99.242 321.27,107.524 311.141,107.842C305.843,108.009 302.481,107.406 298.465,105.231C298.465,105.231 294.373,113.247 284.425,113.084C274.477,112.921 265.997,107.132 259.311,90.62C259.311,90.62 255.278,145.544 265.332,173.062C266.123,175.228 271.925,185.708 272.403,186.567C273.386,188.335 273.741,193.001 273.741,195.868C273.741,198.734 272.798,244.737 272.798,244.737Z"/>
        </g>
        <g transform="matrix(0.278733,0,0,0.278733,498.495,10.2081)">
            <path d="M260.033,88.978C260.667,89.333 260.74,89.417 261.591,91.429C266.145,101.891 274.187,112.575 286.45,111.198C290.735,110.716 294.835,108.19 296.885,104.381C298.684,101.703 300.89,104.754 303.999,105.506C311.25,107.261 319.938,105.566 322.863,98.552C322.863,98.552 323.14,96.838 326.834,98.275C329.645,99.311 333.989,99.941 333.989,99.941C335.458,100.225 336.345,101.631 335.01,103.069C325.051,111.904 315.891,122.734 312.993,135.495L312.904,135.907C321.554,119.87 333.873,104.893 350.397,97.993C350.397,97.993 357.012,98.648 362.151,98.561C364.608,98.519 368.097,98.218 368.097,98.218C368.96,98.363 369.56,99.09 370.187,99.721C375.243,104.692 381.995,108.07 389.048,107.417C389.048,107.417 381.611,104.044 376.414,100.242C376.414,100.242 373.91,98.541 377.938,96.448C384.659,92.857 390.98,86.691 390.867,78.45C390.074,79.616 389.3,80.794 388.503,81.957C380.053,94.133 362.912,96.771 347.736,93.9C339.202,92.285 330.888,85.467 332.624,74.544C332.624,74.544 333.819,71.972 335.739,71.462C335.739,71.462 374.088,56.753 374.088,56.753C379.028,54.513 384.786,52.801 390.13,55.091C397.466,58.236 401.629,66.188 405.448,73.744C411.529,85.774 415.449,98.904 417.292,112.245C417.292,112.245 416.505,119.141 413.777,124.133C409.764,131.474 403.541,137.396 397.409,143.294C386.467,153.815 372.418,161.963 364.726,173.336C359.179,181.536 360.639,192.931 360.834,204.097C361.066,217.388 362.048,230.658 363.438,243.873C363.438,243.873 363.888,246.329 361.727,246.531L272.798,246.531C271.27,246.379 271.111,246.047 271.004,244.701C271.336,228.432 271.83,212.216 271.947,195.868C271.913,191.43 272.474,190.492 270.828,187.426C255.077,158.963 255.383,123.762 257.478,91.125C257.478,91.125 257.563,88.163 260.033,88.978ZM392.682,72.267C394.082,73.103 393.751,73.63 393.959,74.491C396.206,83.786 389.969,93.643 380.965,98.877C380.965,98.877 388.437,103.729 395.523,106.007C395.523,106.007 398.465,108.183 395.341,109.52C386.225,113.421 374.946,109.598 367.324,101.929C367.324,101.929 358.566,102.502 351.692,101.524C351.692,101.524 342.969,105.868 336.906,111.13C326.27,120.361 318.198,132.261 312.328,145.151C312.328,145.151 311.938,145.85 311.343,146.081C306.612,147.911 308.458,131.305 316.284,118.967C319.977,113.145 324.564,107.959 329.539,103.207C329.539,103.207 332.86,104.32 325.563,101.63C325.563,101.63 321.065,107.623 315.053,109.123C309.799,110.434 304.102,109.814 299.194,107.603C299.194,107.603 292.187,115.477 282.908,114.813C273.352,114.129 265.353,106.564 260.706,97.904C259.652,122.934 258.922,149.46 266.791,171.816C267.275,173.192 274.204,182.851 275.178,190.246C275.666,193.958 275.513,197.722 275.447,201.474C275.226,213.497 274.98,225.519 274.739,237.541L274.629,242.944L359.734,242.944C357.654,222.622 355.409,201.966 358.139,182.261C360.167,167.618 374.727,158.93 385.393,149.597C393.025,142.918 400.579,136.053 406.802,128.119C410.293,123.669 413.058,118.48 413.743,112.879C413.743,112.879 409.801,81.937 394.841,63.448C392.747,60.86 390.08,58.438 386.707,57.763C382.835,56.989 378.932,58.496 375.473,60.065L336.883,74.863C336.722,74.912 336.56,74.951 336.404,75.013C335.918,75.232 336.062,75.757 336.009,76.215C335.662,79.564 336.423,83.013 338.629,85.53C343.823,91.457 353.14,91.337 361.711,90.851C370.589,90.347 379.36,88.697 385.262,80.335C387.889,76.55 390.005,71.309 392.682,72.267Z"/>
        </g>
        <g transform="matrix(0.278733,0,0,0.278733,498.495,10.2081)">
            <path d="M326.526,91.936C326.865,93.2 334.842,94.274 334.842,94.274C334.842,94.274 326.987,89.588 326.837,77.106C326.736,68.789 331.302,66.721 334.625,66.002C337.948,65.284 348.502,62.663 348.819,62.479C349.137,62.295 351.108,38.736 349.444,33.942C347.781,29.147 344.226,24.548 335.289,24.353C326.352,24.157 320.025,29.636 319.601,37.529C319.492,39.558 326.186,90.673 326.526,91.936Z"/>
        </g>
        <g transform="matrix(0.278733,0,0,0.278733,498.495,10.2081)">
            <path d="M335.327,22.559C343.276,22.796 350.915,28.164 351.694,36.367C352.523,45.107 352.822,54.248 350.588,62.859C349.698,66.287 338.647,66.45 333.59,68.15C325.378,71.124 327.367,87.44 335.799,92.757C335.799,92.757 340.069,97.562 329.646,95.16C329.253,95.07 328.862,94.973 328.473,94.866C327.054,94.476 325.011,93.899 324.618,91.411C321.989,73.683 319.083,55.972 317.819,37.966C317.819,37.966 317.989,34.495 319.042,32.027C321.526,26.199 327.893,22.739 334.427,22.557C334.878,22.554 334.876,22.554 335.327,22.559ZM327.902,89.068C328.044,90.057 327.222,90.78 329.425,91.407C329.425,91.407 327.867,88.815 327.902,89.068ZM334.491,26.144C327.933,26.327 321.792,30.977 321.394,37.59C320.993,44.262 323.688,57.188 325.312,69.706C325.312,69.706 324.875,73.906 326.06,70.802C328.912,63.864 338.873,63.274 347.213,61.078C347.213,61.078 347.781,55.41 348.02,51.054C348.474,42.783 350.664,32.964 343.031,28.153C340.504,26.56 337.427,26.122 334.491,26.144Z"/>
        </g>
    </g>
</svg>
