<?xml version="1.0" encoding="UTF-8" standalone="no"?>
<!DOCTYPE svg PUBLIC "-//W3C//DTD SVG 1.1//EN" "http://www.w3.org/Graphics/SVG/1.1/DTD/svg11.dtd">
<svg width="100%" height="100%" viewBox="0 0 512 512" version="1.1" xmlns="http://www.w3.org/2000/svg" xml:space="preserve" style="fill-rule:evenodd;clip-rule:evenodd;stroke-linejoin:round;stroke-miterlimit:2;">
    <g transform="matrix(8.32407,0,0,8.32407,-6004.17,-145.533)">
        <g transform="matrix(0.910012,0,0,0.920666,140.472,4.13585)">
            <path d="M672.212,15.281C687.049,15.422 700.971,26.672 704.046,41.218C707.175,56.022 698.559,72.5 684.387,78.295C669.721,84.291 651.022,77.767 643.294,63.756C636.444,51.335 638.925,34.55 649.113,24.603C655.179,18.681 663.671,15.254 672.212,15.281ZM671.824,20.72C659.46,20.838 647.905,30.202 645.342,42.331C642.733,54.672 649.894,68.434 661.717,73.268C676.259,79.214 695.264,69.726 698.658,53.669C701.918,38.253 689.741,21.107 672.528,20.725C672.293,20.721 672.059,20.72 671.824,20.72Z"/>
        </g>
        <g transform="matrix(1,0,0,1,-2,7.96373)">
            <path d="M744.06,32.813C745.345,32.859 746.457,33.965 746.503,35.257C746.538,38.127 746.817,42.154 743.41,41.328C740.957,40.732 741.082,36.091 741.634,34.498C741.979,33.501 742.974,32.8 744.06,32.813Z"/>
        </g>
        <g transform="matrix(1,0,0,1,18,7.96373)">
            <path d="M744.06,32.813C745.345,32.859 746.457,33.965 746.503,35.257C746.538,38.127 746.817,42.154 743.41,41.328C740.957,40.732 741.082,36.091 741.634,34.498C741.979,33.501 742.974,32.8 744.06,32.813Z"/>
        </g>
        <g transform="matrix(1,0,0,1,0,3)">
            <path d="M766.147,52.999C767.218,53.12 767.261,53.389 767.537,53.734C768.441,54.868 767.632,56.863 766,56.925L738,56.925C735.915,56.847 735.165,53.1 738,52.994L766,52.994C766.049,52.996 766.098,52.998 766.147,52.999Z"/>
        </g>
        <g transform="matrix(1,0,0,1,0,-1)">
            <path d="M746.079,36.193C747.997,36.309 748.813,39.955 746.079,40.121C743.387,40.175 740.693,40.122 738,40.122C736.023,40.082 735.278,36.353 737.921,36.193C740.64,36.138 743.36,36.138 746.079,36.193Z"/>
        </g>
        <g transform="matrix(1,0,0,1,20,-1)">
            <path d="M742.215,33.416C745.424,33.495 748.785,36.919 747.768,39.015C747.072,40.45 745.149,40.159 743.851,38.549C742.809,37.283 741.457,37.048 739.492,39.436C738.713,40.308 738.534,40.136 737.953,40.122C736.144,40.078 735.44,37.801 737.607,35.625C738.832,34.395 740.427,33.41 742.215,33.416Z"/>
        </g>
    </g>
</svg>
