<?xml version="1.0" encoding="UTF-8" standalone="no"?>
<!DOCTYPE svg PUBLIC "-//W3C//DTD SVG 1.1//EN" "http://www.w3.org/Graphics/SVG/1.1/DTD/svg11.dtd">
<svg width="100%" height="100%" viewBox="0 0 512 512" version="1.1" xmlns="http://www.w3.org/2000/svg" xml:space="preserve" style="fill-rule:evenodd;clip-rule:evenodd;stroke-linejoin:round;stroke-miterlimit:2;">
    <g id="flower" transform="matrix(1.2747,0,0,1.2747,256,256)">
        <g transform="matrix(1,0,0,1,-196.125,-182.821)">
            <clipPath id="_clip1">
                <rect x="0" y="0" width="392.249" height="365.643"/>
            </clipPath>
            <g clip-path="url(#_clip1)">
                <g id="path877" transform="matrix(1,0,0,1,-86.6927,-318.85)">
                    <path d="M303,683.413L289.824,682.578L289.436,662.663C288.946,637.581 285.981,605.74 284.089,605.246C283.622,605.124 280.758,604.64 277.725,604.171C265.525,602.286 247.95,594.973 232.304,585.273C203.509,567.42 167.232,532.249 143.847,499.514C138.551,492.1 132.317,481.671 132.858,481.129C133.041,480.947 134.379,481.109 135.832,481.489C137.285,481.869 141.404,482.574 144.985,483.055C167.349,486.063 196.998,494.4 211.546,501.773C217.199,504.637 217.817,504.171 213.517,500.285C197.556,485.861 174.268,477.718 125.836,469.625C116.573,468.077 108.219,466.091 108.219,465.437C108.219,464.595 111.51,461.857 114.084,460.557C115.414,459.885 119.205,458.561 122.509,457.614C130.962,455.191 149.414,455.202 160.799,457.636C179.718,461.681 198.412,470.174 219.954,484.512C258.534,510.19 279.61,522.014 304.687,532.049C317.149,537.036 329.485,540.862 340.606,543.189C350.654,545.291 352.993,546.476 355.047,550.505C357.891,556.082 356.201,568.657 351.569,576.374C346.442,584.916 333.192,595.256 322.016,599.436L317.604,601.086L318.558,608.513C321.515,631.556 323.579,670.384 322.363,680.088L321.811,684.493L318.994,684.37C317.444,684.303 310.247,683.872 303,683.413L303,683.413ZM203.789,622.952C195.855,620.248 191.446,616.655 178.737,602.54C165.791,588.163 154.619,577.159 149.143,573.391C144.88,570.458 128.39,562.502 116.435,557.61C102.595,551.948 90.193,545.443 88.379,542.895C85.076,538.257 86.548,533.788 93.483,527.403C101.357,520.153 117.86,511.625 130.621,508.212C135.293,506.963 135.238,506.909 146.09,523.274C167.816,556.037 191.632,577.887 226.176,596.748C233.456,600.723 256.67,610.96 258.403,610.96C258.793,610.96 259.112,611.409 259.112,611.956C259.112,613.005 234.473,621.505 225.41,623.583C218,625.283 209.937,625.047 203.789,622.952ZM369.151,564.046C369.504,562.255 369.793,558.006 369.793,554.602C369.793,549.048 369.555,548.029 367.47,544.657C366.193,542.591 363.709,539.934 361.95,538.753L358.753,536.606L361.771,532.619C366.5,526.371 377.331,507.752 391.279,481.897C406.617,453.463 408.239,450.85 412.472,447.758C415.569,445.496 416.053,445.382 421.212,445.7C429.965,446.241 438.901,451.432 456.152,465.999C465.884,474.216 478.942,491.513 478.942,496.186C478.942,499.463 477.01,500.824 467.806,504.032C456.222,508.07 440.834,515.55 432.281,521.302C424.631,526.445 414.721,534.29 399.283,547.423C389.141,556.05 380.794,562.004 374.223,565.298C368.746,568.043 368.381,567.953 369.151,564.046ZM323.07,532.491C312.611,530.069 269.626,509.764 268.874,506.89C267.042,499.883 289.823,481.904 315.41,470.165C331.635,462.721 335.528,460.671 342.661,455.814C349.784,450.964 351.163,450.867 353.965,455.019C358.239,461.356 360.345,475.572 359.324,491.201C358.056,510.627 349.851,527.264 339.382,531.638C335.371,533.314 328.238,533.687 323.07,532.491ZM364.443,512.075C363.881,510.609 368.092,485.885 370.567,476.122C375.064,458.381 382.383,444.091 398.236,422.102C405.776,411.642 407.359,407.292 406.688,398.874C406.097,391.47 404.581,386.235 402.936,385.918C400.798,385.506 398.696,388.476 397.802,393.169C395.312,406.243 392.19,413.861 384.333,426.031C374.294,441.58 371.439,446.721 368.503,454.536C366.807,459.052 365.305,462.869 365.167,463.017C364.693,463.523 360.392,454.326 359.156,450.162C356.464,441.094 357.788,435.138 367.029,414.73C373.021,401.497 374.472,395.508 373.75,386.979C372.931,377.304 369.587,369.638 362.491,361.165C359.554,357.659 358.134,355.378 358.598,354.913C359.012,354.499 362.597,354.33 366.859,354.524C373.789,354.839 375.365,355.234 386.644,359.487C393.385,362.029 400.26,364.318 401.922,364.574L404.945,365.041L403.071,363.262C400.928,361.226 380.838,348.63 375.091,345.718C368.594,342.426 363.26,341.261 354.609,341.248C345.328,341.234 343.35,341.687 329.963,346.898L320.006,350.774L309.143,351.132C303.168,351.329 297.016,351.254 295.471,350.964C292.717,350.447 292.673,350.383 293.185,347.649C294.402,341.164 300.095,333.795 306.89,329.91C314.199,325.73 320.855,324.341 335.557,323.926C357.429,323.307 380.357,326.549 404.76,333.709C408.826,334.902 415.262,337.101 418.06,338.566C425.839,342.639 432.299,351.655 435.017,362.235C435.922,365.756 436.134,369.006 435.827,374.663C435.026,389.439 430.696,399.043 412.706,425.951C405.372,436.921 396.298,451.595 392.542,458.559C380.905,480.135 371.956,497.715 369.356,504.11C366.302,511.618 365.048,513.651 364.443,512.075L364.443,512.075ZM261.087,499.353C263.228,489.956 271.166,481.395 300.091,457.289C330.788,431.708 342.056,415.195 343.145,394.196C343.475,387.824 343.276,386.155 341.54,380.79C339.135,373.356 339.044,370.519 341.125,367.872C344.209,363.952 351.235,365.92 357.623,372.493C363.726,378.773 364.455,385.256 360.903,401.664C353.872,434.142 338.553,451.513 302.62,467.755C288.545,474.117 281.254,479.817 270.049,493.22C267.308,496.499 264.061,499.701 262.832,500.336L260.599,501.491L261.087,499.353ZM247.412,491.28C244.256,488.997 236.85,483.135 228.666,476.441C224.751,473.239 224.557,471.425 227.023,461.085C229.187,452.013 228.814,444.155 226.009,439.722C223.67,436.023 217.598,430.426 211.24,426.107C206.735,423.046 206.674,423.029 208.149,425.249C212.413,431.667 216.289,439.386 218.246,445.355C220.099,451.009 220.431,453.272 220.43,460.222C220.429,464.73 220.084,468.751 219.664,469.156C218.872,469.92 205.519,462.701 203.103,460.204C200.938,457.964 186.914,415.891 186.516,410.438C186.005,403.449 187.806,399.097 191.993,397.196C193.732,396.406 196.008,395.753 197.05,395.743C198.092,395.735 204.374,398.323 211.009,401.497C223.753,407.592 234.579,411.484 245.325,413.834C255.362,416.029 280.297,415.823 291.283,413.454C304.771,410.545 323.567,403.372 332.537,397.709L335.732,395.692L335.264,398.965C333.224,413.25 311.771,440.786 286.304,461.808C279.142,467.72 268.43,477.33 262.5,483.163C256.569,488.996 251.523,493.769 251.286,493.769C251.048,493.769 249.305,492.649 247.412,491.28ZM285.714,442.55C294.179,439.745 296.524,438.586 300.12,435.428C302.81,433.066 305.673,428.66 304.515,428.665C304.188,428.666 300.302,429.393 295.878,430.279C285.196,432.421 267.128,432.616 257.198,430.697C244.191,428.184 231.194,423.197 218.276,415.763C208.243,409.99 205.434,408.554 205.007,408.981C204.816,409.171 208.554,412.548 213.312,416.484C218.07,420.421 224.855,426.188 228.388,429.301C242.812,442.006 252.767,445.745 270.602,445.157C277.035,444.945 280.059,444.423 285.714,442.55ZM187.154,454.626C183.691,453.243 166.137,450.108 156.003,449.063C146.825,448.117 145.653,447.818 142.43,445.601C136.578,441.574 132.705,435.317 131.274,427.579C129.375,417.305 132.34,410.931 146.452,394.94C149.692,391.269 157.704,381.758 164.257,373.805C187.937,345.062 200.295,333.994 218.151,325.536C228.993,320.4 235.428,318.922 247.24,318.853C258.597,318.787 263.184,319.792 273.37,324.58C279.65,327.531 284.392,331.709 284.386,334.285C284.38,336.536 281.612,340.275 278.532,342.19C275.688,343.957 275.049,344.024 261.027,344.024L246.474,344.024L241.187,346.705C231.144,351.798 225.625,358.93 219.978,374.115C217.077,381.917 213.808,386.383 209.343,388.641C205.147,390.765 202.421,390.806 196.687,388.833C187.943,385.824 180.58,387.507 176.525,393.44C173.024,398.562 175.043,408.623 185.557,438.447C188.519,446.849 190.942,454.116 190.942,454.597C190.942,455.638 189.711,455.647 187.154,454.626L187.154,454.626ZM248.006,405.702C240.34,403.73 220.13,397.595 219.62,397.085C219.504,396.969 220.7,395.36 222.277,393.51L225.146,390.145L234.278,392.173C239.301,393.288 243.72,394.199 244.099,394.198C244.478,394.196 242.572,392.517 239.864,390.467C234.074,386.084 230.215,381.89 229.556,379.264C228.45,374.858 236.977,363.59 244.004,360.171C253.142,355.726 272.901,355.427 282.32,359.592L285.538,361.015L274.049,366.798C261.541,373.092 256.282,377.093 253.815,382.19C251.158,387.679 251.648,391.369 256.708,403.96C257.833,406.76 258.037,407.965 257.378,407.926C256.857,407.895 252.64,406.894 248.006,405.702ZM274.049,406.965C267.166,404.666 263.191,401.408 261.068,396.326C259.52,392.621 259.588,389.93 261.323,386.109C264.161,379.862 275.161,372.979 288.219,369.282C294.608,367.473 297.546,367.145 312.311,366.589C321.559,366.241 329.4,366.126 329.735,366.333C330.07,366.54 330.284,368.907 330.21,371.594C330.084,376.158 330.285,376.792 333.275,381.244C336.753,386.423 336.954,387.127 335.517,389.066C334.502,390.434 311.339,401.088 309.378,401.088C307.417,401.088 307.318,399.863 308.976,396.114C311.035,391.46 310.477,388.12 307.174,385.341C304.969,383.485 304.291,383.324 300.106,383.66C291.462,384.354 280.547,391.845 280.568,397.069L280.576,399.173L282.55,396.669C285.02,393.535 288.124,391.897 291.592,391.897C295.265,391.897 298.081,393.321 299.383,395.838C301.639,400.202 300.062,404.208 295.305,406.196C291.537,407.77 277.934,408.262 274.049,406.965L274.049,406.965Z" style="fill-rule:nonzero;"/>
                </g>
            </g>
        </g>
    </g>
</svg>
