<?xml version="1.0" encoding="UTF-8" standalone="no"?>
<!DOCTYPE svg PUBLIC "-//W3C//DTD SVG 1.1//EN" "http://www.w3.org/Graphics/SVG/1.1/DTD/svg11.dtd">
<svg width="100%" height="100%" viewBox="0 0 512 512" version="1.1" xmlns="http://www.w3.org/2000/svg" xml:space="preserve" style="fill-rule:evenodd;clip-rule:evenodd;stroke-linejoin:round;stroke-miterlimit:2;">
    <g id="mindblowing" transform="matrix(2.51256,0,0,2.51256,256,256)">
        <g transform="matrix(1,0,0,1,-85.0873,-99.5)">
            <clipPath id="_clip1">
                <rect x="0" y="0" width="170.175" height="199"/>
            </clipPath>
            <g clip-path="url(#_clip1)">
                <g id="path889" transform="matrix(1,0,0,1,-205.683,-198.857)">
                    <path d="M253.857,386.357L253.857,374.857L246.036,374.857C239.483,374.857 237.34,374.412 232.807,372.107C224.794,368.033 222.614,363.203 222.042,348.251L221.605,336.857L214.754,336.857C208.664,336.857 207.732,336.596 206.362,334.505C204.894,332.265 205.227,331.292 213.28,314.25C220.856,298.221 221.898,295.303 223.245,286.353C225.536,271.125 229.271,262.686 237.051,255.159L240.357,251.96L245.089,256.159L249.821,260.357L245.416,266.093C234.673,280.082 232.884,299.608 240.881,315.577C242.474,318.756 245.05,322.878 246.606,324.736L249.436,328.115L260.581,313.236L271.727,298.357L259.042,297.857L246.357,297.357L257.357,293.451C263.407,291.302 268.559,289.375 268.805,289.169C269.051,288.963 265.227,284.735 260.305,279.773C254.604,274.026 252.264,271.104 253.857,271.721C255.232,272.254 261.042,274.755 266.767,277.28C272.493,279.805 277.283,281.755 277.412,281.614C277.541,281.473 276.156,275.283 274.333,267.86C272.51,260.436 271.137,254.244 271.283,254.098C271.429,253.952 275.237,258.088 279.746,263.289L287.944,272.744L295.55,264.783C299.733,260.405 303.342,257.009 303.57,257.237C303.798,257.465 303.027,262.919 301.857,269.357C300.687,275.795 299.977,281.311 300.28,281.613C300.582,281.916 307.249,282.924 315.094,283.855L329.357,285.546L324.857,287.595C322.382,288.722 317.277,291.042 313.513,292.751L306.67,295.858L310.423,301.107C312.487,303.995 315.292,307.833 316.657,309.636L319.138,312.915L316.748,311.999C315.433,311.496 310.357,309.233 305.467,306.971C300.578,304.708 296.453,302.857 296.3,302.857C296.148,302.857 293.623,309.945 290.69,318.607L285.357,334.357L285.08,320.107C284.927,312.27 284.535,305.857 284.208,305.857C283.079,305.857 251.857,328.975 251.857,329.811C251.857,330.272 254.093,332.083 256.826,333.837C275.252,345.661 298.28,344.173 313.876,330.15L319.011,325.533L324.58,331.101L330.148,336.67L325.002,342.11L319.857,347.55L319.857,397.857L286.857,397.857L253.857,397.857L253.857,386.357ZM344.003,338.823C340.073,336.063 336.857,333.457 336.857,333.031C336.857,332.605 337.383,331.732 338.025,331.089C338.916,330.199 340.756,331.018 345.775,334.541C354.31,340.532 353.92,340.09 352.435,342.099C351.251,343.703 350.58,343.442 344.003,338.823ZM357.107,323.124C351.47,321.236 346.864,319.39 346.872,319.024C346.881,318.657 347.274,317.747 347.747,317.001C348.446,315.899 350.501,316.266 358.732,318.964C364.301,320.789 368.85,322.749 368.842,323.32C368.795,326.487 367.061,326.458 357.107,323.124L357.107,323.124ZM329.118,322.519C326.237,320.78 324.074,318.907 324.312,318.357C330.049,305.092 330.234,304.364 330.277,294.857C330.311,287.461 329.809,283.865 328.011,278.618C326.741,274.911 325.286,271.622 324.779,271.309C322.875,270.132 323.995,268.272 328.214,265.607C330.608,264.095 332.999,262.857 333.528,262.857C334.857,262.857 339.639,273.2 341.388,279.857C343.534,288.025 343.266,302.921 340.803,312.323C338.679,320.431 336.343,325.922 335.081,325.769C334.683,325.721 332,324.258 329.118,322.519ZM351.038,294.607C351.347,292.432 351.763,292.348 363.607,292.076L375.857,291.796L375.857,296.857L363.288,296.857C350.824,296.857 350.721,296.837 351.038,294.607L351.038,294.607ZM313.071,257.78C310.169,255.111 305.558,251.902 302.826,250.648C300.093,249.395 297.857,247.884 297.857,247.291C297.857,246.698 298.569,244.124 299.439,241.571L301.021,236.928L305.743,238.722C311.281,240.826 321.17,247.391 325.161,251.614L327.966,254.58L323.157,258.606L318.348,262.632L313.071,257.78ZM342.081,256.845C341.001,255.114 341.559,254.54 347.871,250.893C351.713,248.673 358.08,244.995 362.019,242.718C368.778,238.813 369.256,238.682 370.509,240.395C371.239,241.394 371.729,242.294 371.597,242.396C371.465,242.498 366.407,245.399 360.357,248.844C354.307,252.288 347.989,255.929 346.317,256.933C343.359,258.712 343.246,258.709 342.081,256.845L342.081,256.845ZM253.905,249.427C252.229,246.99 250.857,244.582 250.857,244.075C250.857,242.487 264.325,236.861 272.009,235.239C278.878,233.789 289.07,233.736 290.477,235.144C290.819,235.486 290.795,238.196 290.424,241.167L289.749,246.568L281.553,247.162C273.774,247.727 262.549,250.766 260.434,252.88C258.593,254.721 256.95,253.853 253.905,249.427L253.905,249.427ZM333.961,248.482C333.054,247.389 334.067,245.953 338.895,241.482C345.452,235.412 346.019,235.142 347.767,237.249C348.693,238.364 347.678,239.749 342.639,244.244C339.184,247.326 336.075,249.85 335.73,249.853C335.384,249.855 334.589,249.238 333.961,248.482ZM224.857,239.922C218.992,234.595 218.506,233.866 219.886,232.445C221.271,231.019 222.02,231.418 227.818,236.669C232.488,240.899 234.045,242.926 233.57,244.162C233.213,245.094 232.568,245.85 232.139,245.841C231.709,245.832 228.432,243.168 224.857,239.922ZM231.066,223.4C224.901,214.348 219.857,206.521 219.857,206.007C219.857,204.685 223.078,203.604 223.777,204.691C224.096,205.187 229.252,212.803 235.234,221.616C245.252,236.373 246.832,239.857 243.507,239.857C242.83,239.857 237.231,232.451 231.066,223.4ZM320.89,237.397C319.898,236.201 321.061,233.942 327.315,224.918C334.153,215.051 335.146,214.021 336.818,215.065C338.549,216.146 338.13,217.045 331.021,227.503C326.806,233.702 323.075,238.793 322.73,238.816C322.384,238.839 321.557,238.2 320.89,237.397ZM250.234,220.105C246.329,209.927 246.21,209.309 247.993,208.45C249.029,207.951 250.035,207.726 250.229,207.95C251.27,209.153 258.572,229.473 258.191,230.107C257.942,230.52 256.978,230.856 256.048,230.855C254.821,230.854 253.225,227.903 250.234,220.105ZM291.495,227.059C289.957,226.736 289.729,226.028 290.187,223.012C290.492,221.002 291.287,214.745 291.954,209.107C293.11,199.339 293.278,198.857 295.531,198.857C297.457,198.857 297.807,199.274 297.42,201.107C297.158,202.345 296.412,208.307 295.762,214.357C294.438,226.689 294.128,227.612 291.495,227.059ZM303.21,227.092C302.378,226.558 302.656,224.463 304.227,219.435C306.401,212.478 307.357,211.254 309.537,212.639C310.416,213.197 310.173,215.231 308.586,220.623C306.528,227.611 305.657,228.659 303.21,227.092Z" style="fill-rule:nonzero;"/>
                </g>
            </g>
        </g>
    </g>
</svg>
