<?xml version="1.0" encoding="UTF-8" standalone="no"?>
<!DOCTYPE svg PUBLIC "-//W3C//DTD SVG 1.1//EN" "http://www.w3.org/Graphics/SVG/1.1/DTD/svg11.dtd">
<svg width="100%" height="100%" viewBox="0 0 512 512" version="1.1" xmlns="http://www.w3.org/2000/svg" xml:space="preserve" style="fill-rule:evenodd;clip-rule:evenodd;stroke-linejoin:round;stroke-miterlimit:2;">
    <g transform="matrix(714.533,0,0,714.533,104.929,497.783)">
            <path d="M0.409,-0.5C0.409,-0.419 0.376,-0.36 0.311,-0.322C0.262,-0.294 0.235,-0.265 0.231,-0.237C0.23,-0.229 0.229,-0.222 0.229,-0.214C0.226,-0.208 0.22,-0.204 0.211,-0.204C0.178,-0.204 0.154,-0.202 0.14,-0.198C0.137,-0.197 0.135,-0.197 0.133,-0.197C0.122,-0.197 0.116,-0.213 0.116,-0.245C0.116,-0.272 0.132,-0.307 0.164,-0.347C0.196,-0.388 0.212,-0.423 0.212,-0.45C0.212,-0.492 0.19,-0.513 0.145,-0.513C0.117,-0.513 0.08,-0.502 0.035,-0.48C0.021,-0.48 0.014,-0.521 0.014,-0.604C0.014,-0.614 0.014,-0.62 0.015,-0.625C0.02,-0.647 0.047,-0.664 0.097,-0.676C0.133,-0.685 0.168,-0.689 0.201,-0.689C0.26,-0.689 0.309,-0.673 0.348,-0.64C0.389,-0.605 0.409,-0.558 0.409,-0.5ZM0.277,-0.08C0.277,-0.055 0.268,-0.033 0.251,-0.015C0.233,0.003 0.212,0.012 0.187,0.012C0.162,0.012 0.141,0.003 0.123,-0.015C0.106,-0.033 0.097,-0.055 0.097,-0.08C0.097,-0.105 0.106,-0.127 0.123,-0.144C0.141,-0.162 0.162,-0.171 0.187,-0.171C0.212,-0.171 0.233,-0.162 0.251,-0.144C0.268,-0.127 0.277,-0.105 0.277,-0.08Z" style="fill-rule:nonzero;"/>
    </g>
</svg>
